# xmcd
# 
# Track frame offsets:
#     150
#     21692
#     39760
#     58400
#     80515
#     96310
#     114827
#     135060
#     155990
#     175772
#     196515
#     215357
# 
# Disc length: 3130
# 
# Revision: 1
# Processed by: cddbd v1.5.2PL0 Copyright (c) Steve Scherf et al.
# Submitted via: fre:ac v1.0.31
# 
DISCID=9a0c380c
DTITLE=ANGEL - RAINBOW
DYEAR=2003
DGENRE=Pop
TTITLE0=RAINBOW
TTITLE1=Ange passe (Remix)
TTITLE2=風のうた
TTITLE3=You're My Angel
TTITLE4=花のうた
TTITLE5=GIRLS BE
TTITLE6=Teen-age hurricane
TTITLE7=YOU
TTITLE8=EVER LOVE
TTITLE9=After the rain
TTITLE10=陽のあたる場所 (Remix)
TTITLE11=いつか見た夢
EXTD=YEAR: 2003
EXTT0=
EXTT1=
EXTT2=
EXTT3=
EXTT4=
EXTT5=
EXTT6=
EXTT7=
EXTT8=
EXTT9=
EXTT10=
EXTT11=
PLAYORDER=
